<?xml version="1.0" standalone="no"?>
<!DOCTYPE svg PUBLIC "-//W3C//DTD SVG 20010904//EN"
 "http://www.w3.org/TR/2001/REC-SVG-20010904/DTD/svg10.dtd">
<svg version="1.0" xmlns="http://www.w3.org/2000/svg"
 width="1280.000000pt" height="1280.000000pt" viewBox="0 0 1280.000000 1280.000000"
 preserveAspectRatio="xMidYMid meet">
<g transform="translate(0.000000,1280.000000) scale(0.100000,-0.100000)"
fill="#000000" stroke="none">
<path d="M8340 12785 c-30 -7 -78 -14 -106 -14 -36 -1 -67 -9 -103 -28 -38
-21 -538 -513 -1988 -1953 -1066 -1059 -2508 -2492 -3204 -3183 -857 -851
-1274 -1271 -1288 -1300 -12 -23 -127 -433 -256 -912 -128 -478 -304 -1131
-390 -1450 -763 -2814 -997 -3684 -1002 -3710 -6 -38 24 -110 66 -157 37 -42
128 -83 168 -75 16 3 186 48 378 100 193 52 744 199 1225 327 481 128 1033
274 1225 326 193 52 1000 267 1795 479 795 211 1465 394 1490 407 31 16 330
307 975 948 511 509 1943 1932 3182 3163 2124 2111 2253 2240 2272 2293 24 62
25 77 11 104 -5 10 -11 60 -14 112 -3 83 -19 149 -145 601 -77 279 -147 520
-155 536 -22 41 -71 79 -112 87 -86 16 -71 29 -874 -770 -410 -408 -1418
-1409 -2240 -2226 -822 -816 -1854 -1841 -2292 -2278 -880 -878 -835 -826
-880 -1004 -34 -138 -26 -193 96 -632 58 -208 106 -386 106 -395 0 -9 -33 -49
-73 -89 l-73 -73 -315 -84 c-173 -46 -790 -210 -1373 -365 l-1059 -282 -261
259 c-960 950 -1826 1818 -1826 1830 0 7 164 622 365 1365 l364 1352 73 73
c40 40 81 73 92 73 10 0 188 -45 395 -100 207 -56 405 -105 441 -110 110 -16
240 10 365 73 51 25 140 109 585 551 2368 2353 5041 5007 5303 5266 176 173
330 334 344 357 46 79 27 163 -50 207 -54 32 -1139 322 -1175 315 -4 -1 -32
-7 -62 -14z"/>
<path d="M10120 11991 c-84 -26 -128 -66 -760 -695 -355 -353 -1653 -1643
-2885 -2866 -2901 -2880 -2636 -2613 -2670 -2685 -35 -73 -41 -180 -13 -231
25 -45 1722 -1725 1765 -1748 49 -25 158 -18 228 14 59 28 -119 -147 2890
2840 3405 3380 3341 3316 3373 3380 35 71 42 174 17 230 -20 45 -1710 1727
-1762 1754 -34 17 -136 21 -183 7z"/>
</g>
</svg>
